<?xml version="1.0" standalone="no"?>
<!DOCTYPE svg PUBLIC "-//W3C//DTD SVG 1.1//EN" "http://www.w3.org/Graphics/SVG/1.1/DTD/svg11.dtd" >
<svg xmlns="http://www.w3.org/2000/svg" xmlns:xlink="http://www.w3.org/1999/xlink" version="1.1">
<metadata></metadata>
<defs>
<font id="nunito_sansextrabold_italic" horiz-adv-x="1228" >
<font-face units-per-em="2048" ascent="1638" descent="-410" />
<missing-glyph horiz-adv-x="569" />
<glyph unicode="&#xfb01;" horiz-adv-x="1312" d="M51 774l35 232h190l7 30q29 184 149.5 293t376.5 121l119 6l-8 -225l-97 -6q-111 -6 -165 -48t-66 -130l-6 -41h688l-160 -1006h-309l123 774h-377l-125 -774h-309l125 774h-191zM987 1200l45 289h332l-47 -289h-330z" />
<glyph unicode="&#xfb02;" horiz-adv-x="1466" d="M51 774l35 232h190l7 30q29 184 149.5 294t376.5 120l131 6l-6 -225l-111 -6q-111 -6 -165 -48t-66 -130l-6 -41h258l-37 -232h-256l-125 -774h-309l125 774h-191zM882 381l168 1063h310l-168 -1059q-23 -158 118 -158q20 0 43 2t45 4l-41 -235q-67 -21 -153 -21 q-188 0 -270 103.5t-52 300.5z" />
<glyph horiz-adv-x="0" />
<glyph horiz-adv-x="682" />
<glyph horiz-adv-x="0" />
<glyph horiz-adv-x="0" />
<glyph unicode="&#xd;" horiz-adv-x="569" />
<glyph unicode=" "  horiz-adv-x="569" />
<glyph unicode="&#x09;" horiz-adv-x="569" />
<glyph unicode="&#xa0;" horiz-adv-x="569" />
<glyph unicode="!" horiz-adv-x="532" d="M20 0l54 328h332l-52 -328h-334zM166 469l59 975h379l-250 -975h-188z" />
<glyph unicode="&#x22;" horiz-adv-x="983" d="M211 834l22 610h357l-172 -610h-207zM672 834l22 610h357l-172 -610h-207z" />
<glyph unicode="#" d="M76 340l28 190h162l142 400h-193l29 192h231l115 322h205l-115 -322h221l115 322h205l-113 -322h119l-31 -192h-158l-141 -400h190l-28 -190h-230l-122 -340h-203l119 340h-220l-120 -340h-205l119 340h-121zM471 530h221l142 400h-222z" />
<glyph unicode="$" d="M6 156l105 243q119 -80 241.5 -114.5t243.5 -34.5q117 0 187.5 43t70.5 119q0 59 -41 96t-137 61l-213 54q-150 37 -237 132t-87 244q0 137 71 235.5t189.5 155t262.5 66.5l36 223h244l-41 -241q86 -18 169 -56.5t153 -97.5l-109 -227q-90 76 -195.5 106.5t-199.5 30.5 q-127 0 -198.5 -44t-71.5 -118q0 -66 37.5 -101.5t115.5 -56.5l213 -53q172 -43 261 -140t89 -237q0 -137 -66.5 -232t-178 -149.5t-246.5 -70.5l-35 -228h-244l37 230q-121 14 -229.5 54t-196.5 108z" />
<glyph unicode="%" horiz-adv-x="1953" d="M150 915q0 152 48 275t140 194.5t223 71.5q166 0 255 -94t89 -250q0 -154 -48 -275.5t-140 -192.5t-225 -71q-166 0 -254 94.5t-88 247.5zM393 915q-2 -82 25 -115.5t74 -33.5q55 0 92 51t56 131t22 166q2 82 -25 116t-74 34q-55 0 -92 -51.5t-56.5 -131.5t-21.5 -166z M399 57l1045 1448l178 -127l-1042 -1448zM1116 319q0 152 48 275t140.5 194.5t223.5 71.5q166 0 254 -94t88 -250q0 -154 -47 -275.5t-139.5 -192.5t-223.5 -71q-168 0 -256 94.5t-88 247.5zM1360 322q-2 -82 24.5 -116t73.5 -34q55 0 92 51t56.5 131t21.5 166 q0 82 -25.5 116t-72.5 34q-55 0 -93 -52.5t-56.5 -132t-20.5 -163.5z" />
<glyph unicode="&#x26;" horiz-adv-x="1525" d="M88 332q0 106 47 192t128 153.5t181 119.5l2 2q-51 61 -73.5 128.5t-22.5 133.5q0 123 60.5 213t165 141t235.5 51q162 0 258 -84t96 -215q0 -92 -46 -167.5t-119.5 -136t-159.5 -107.5l209 -252q53 80 90 175t61 200h254q-25 -154 -87 -295.5t-153 -253.5l285 -330h-354 l-121 145q-94 -80 -210 -124t-251 -44q-145 0 -251.5 45.5t-165 125t-58.5 184.5zM395 377q0 -72 54.5 -116t160.5 -44q76 0 138.5 23.5t119.5 68.5l-274 326q-82 -45 -140.5 -106.5t-58.5 -151.5zM633 1081q0 -39 14.5 -75.5t52.5 -87.5q217 86 218 235q0 102 -117 102 q-78 0 -123 -47t-45 -127z" />
<glyph unicode="'" horiz-adv-x="522" d="M211 834l22 610h357l-172 -610h-207z" />
<glyph unicode="(" horiz-adv-x="780" d="M193 309q0 225 58 439.5t160.5 400.5t233.5 332l207 -99q-102 -182 -175 -366.5t-113 -384t-40 -432.5q0 -123 12.5 -243t32.5 -275l-213 -84q-84 172 -123.5 355t-39.5 357z" />
<glyph unicode=")" horiz-adv-x="780" d="M-61 -305q104 184 177.5 367.5t112.5 384t39 432.5q0 123 -11 242.5t-34 275.5l213 84q84 -172 125 -354.5t41 -358.5q0 -225 -58.5 -439t-162 -400.5t-234.5 -331.5z" />
<glyph unicode="*" horiz-adv-x="929" d="M152 971v209l245 -19l-137 209l182 107l115 -250l113 250l182 -109l-137 -207l246 19v-209l-246 16l137 -209l-182 -106l-115 252l-115 -250l-182 104l137 209z" />
<glyph unicode="+" d="M111 481l34 213h390l61 387h219l-61 -387h391l-35 -213h-389l-64 -399h-219l64 399h-391z" />
<glyph unicode="," horiz-adv-x="532" d="M20 0l52 328h331l-36 -238q-18 -115 -66.5 -203t-167.5 -182l-104 115q57 49 90 91t51 89h-150z" />
<glyph unicode="-" horiz-adv-x="901" d="M123 428l39 242h631l-37 -242h-633z" />
<glyph unicode="." horiz-adv-x="532" d="M20 0l52 328h331l-51 -328h-332z" />
<glyph unicode="/" horiz-adv-x="677" d="M-129 -63l786 1630l211 -94l-788 -1631z" />
<glyph unicode="0" d="M102 530q0 287 75 497t211 324.5t323 114.5q238 0 362.5 -142t124.5 -406q0 -289 -74.5 -500t-211 -326t-322.5 -115q-238 0 -363 143.5t-125 409.5zM406 489q-1 -253 198 -253q123 0 204 181t85 539q4 252 -197 252q-123 0 -205.5 -178t-84.5 -541z" />
<glyph unicode="1" d="M125 0l41 260h323l127 809l-251 -135l-97 242l500 268h227l-188 -1184h303l-43 -260h-942z" />
<glyph unicode="2" d="M78 0l39 236l512 473q104 94 161.5 171.5t57.5 166.5q0 74 -52.5 114.5t-142.5 40.5q-86 0 -174 -36t-178 -101l-92 238q109 78 240 120.5t272 42.5q133 0 232.5 -48t153.5 -131t54 -189q0 -119 -42 -215.5t-117.5 -180.5t-174.5 -167l-309 -275h576l-41 -260h-975z" />
<glyph unicode="3" d="M37 147l123 226q90 -74 190.5 -102.5t212.5 -28.5q102 0 170 52t68 148q0 74 -51.5 116t-151.5 42h-233l38 256h213q109 0 179.5 49t70.5 144q0 72 -54 112.5t-142 40.5q-96 0 -194.5 -33.5t-188.5 -103.5l-94 238q111 80 249 121.5t273 41.5q156 0 256 -52t150 -136 t50 -180q2 -133 -77.5 -226.5t-208.5 -132.5q109 -37 165 -120.5t56 -198.5q0 -119 -63.5 -219.5t-185.5 -162t-294 -61.5q-94 0 -191.5 17.5t-184.5 55.5t-150 97z" />
<glyph unicode="4" d="M33 258l35 227l815 959h260l-150 -936h193l-37 -250h-193l-41 -258h-311l41 258h-612zM360 508h324l76 479z" />
<glyph unicode="5" d="M80 147l123 226q90 -74 180 -102.5t188 -28.5q119 0 197 65.5t78 173.5q0 88 -57.5 138.5t-149.5 50.5q-76 0 -145.5 -31t-128.5 -86h-205l143 891h911l-38 -260h-611l-51 -324q111 66 240 66q123 0 212 -53.5t137 -146.5t48 -214q0 -166 -80 -286t-212 -184.5 t-288 -64.5q-127 0 -262 40t-229 130z" />
<glyph unicode="6" d="M117 535q0 291 86 499.5t245.5 320t380.5 111.5q123 0 232.5 -43t198.5 -127l-125 -223q-145 129 -322 129q-162 0 -263 -118.5t-126 -338.5q53 92 147.5 142.5t198.5 50.5q115 0 200 -56.5t133 -150.5t48 -209q0 -156 -64.5 -278.5t-180 -194.5t-267.5 -72 q-248 0 -385 151t-137 407zM430 422q0 -88 55.5 -142.5t141.5 -54.5q104 0 167.5 76t63.5 193q0 88 -54 142t-142 54q-102 0 -167 -75.5t-65 -192.5z" />
<glyph unicode="7" d="M63 0l816 1180h-676l41 264h1038l-39 -238l-821 -1206h-359z" />
<glyph unicode="8" d="M45 356q0 141 81 247t210 142q-74 41 -114 117t-40 176q0 137 74 232.5t199 143.5t280 48q217 0 346 -96t129 -258q0 -121 -69.5 -222.5t-179.5 -144.5q86 -39 136 -119.5t50 -193.5q0 -147 -78 -246.5t-211 -150.5t-303 -51q-236 0 -373 101t-137 275zM336 393 q0 -86 63 -129t172 -43q129 0 207 57.5t78 163.5q0 82 -64.5 124t-170.5 42q-131 0 -208 -55t-77 -160zM473 1010q0 -76 52.5 -117t144.5 -41q113 0 180.5 58.5t67.5 152.5q0 76 -51.5 117t-143.5 41q-117 0 -183.5 -57.5t-66.5 -153.5z" />
<glyph unicode="9" d="M41 147l123 226q156 -131 330 -131q154 0 255 118.5t125 337.5q-51 -90 -147 -141t-199 -51q-115 0 -200.5 56t-134 151.5t-48.5 210.5q0 156 65.5 278.5t182.5 193t266 70.5q248 0 384.5 -149.5t136.5 -405.5q0 -199 -43 -368.5t-129 -296.5t-214 -198t-298 -71 q-123 0 -246 43t-209 127zM440 952q0 -88 54.5 -143t140.5 -55q104 0 167.5 75.5t63.5 192.5q0 88 -54 143.5t-140 55.5q-104 0 -168 -76t-64 -193z" />
<glyph unicode=":" horiz-adv-x="532" d="M20 0l54 328h332l-52 -328h-334zM127 678l53 328h332l-53 -328h-332z" />
<glyph unicode=";" horiz-adv-x="532" d="M20 0l52 328h331l-36 -238q-18 -115 -66.5 -203t-167.5 -182l-104 115q57 49 90 91t51 89h-150zM127 678l53 328h332l-53 -328h-332z" />
<glyph unicode="&#x3c;" d="M109 473l36 232l1065 407l-39 -244l-774 -293l682 -292l-35 -220z" />
<glyph unicode="=" d="M80 279l33 210h999l-33 -210h-999zM143 686l33 213h1000l-33 -213h-1000z" />
<glyph unicode="&#x3e;" d="M45 63l39 244l772 293l-682 293l37 219l934 -407l-37 -232z" />
<glyph unicode="?" horiz-adv-x="958" d="M129 1296q111 88 245 129t269 41q121 0 208 -44t135 -117.5t48 -163.5q0 -129 -71.5 -220.5t-174.5 -154.5q-74 -51 -115.5 -91t-63 -77t-34.5 -82l-20 -59h-184l14 98q10 63 28.5 114.5t57.5 100.5t109 111q29 25 61.5 54.5t56 66t23.5 88.5q0 49 -35 80.5t-111 31.5 q-178 0 -352 -137zM225 0l54 328h329l-51 -328h-332z" />
<glyph unicode="@" horiz-adv-x="1949" d="M121 543q0 279 116.5 485.5t326.5 322t491 115.5q246 0 428 -95t283.5 -268t101.5 -407q0 -176 -51.5 -305t-141.5 -199.5t-211 -70.5q-205 0 -264 170q-55 -86 -131 -128t-162 -42q-168 0 -260 104.5t-92 284.5q0 150 56.5 266.5t154.5 183t225 66.5q174 0 244 -137 l22 117h224l-84 -474q-12 -76 -13 -118q0 -117 97 -117q88 0 144 110.5t56 288.5q0 283 -165.5 435.5t-462.5 152.5q-219 0 -382 -91t-253 -257t-90 -393q0 -219 85 -376t238.5 -241t364.5 -84q295 0 483 154l90 -158q-98 -84 -246.5 -131t-326.5 -47q-199 0 -363 63.5 t-282.5 180t-184 278.5t-65.5 361zM793 512q0 -100 41.5 -151.5t119.5 -51.5q104 0 171 95.5t67 250.5q0 180 -158 181q-106 0 -173.5 -89.5t-67.5 -234.5z" />
<glyph unicode="A" horiz-adv-x="1542" d="M-100 0l895 1444h256l432 -1444h-303l-82 313h-680l-185 -313h-333zM563 561h467l-143 545h-4z" />
<glyph unicode="B" horiz-adv-x="1423" d="M66 0l229 1444h620q166 0 268.5 -45t149.5 -123t47 -176q0 -137 -77.5 -230.5t-206.5 -132.5q102 -37 159.5 -116.5t57.5 -188.5q0 -211 -143.5 -321.5t-391.5 -110.5h-712zM408 236h352q125 0 186.5 56t61.5 159q0 163 -210 163h-3h-328zM506 850h313q123 0 189.5 53 t66.5 156q0 72 -51 110.5t-160 38.5h-303z" />
<glyph unicode="C" horiz-adv-x="1398" d="M137 639q0 174 53.5 323.5t154.5 263t249.5 177t339.5 63.5q150 0 278.5 -46t204.5 -120l-125 -251q-164 137 -364 137q-147 0 -248.5 -71t-153 -192.5t-51.5 -273.5q0 -205 93.5 -298t283.5 -93q88 0 178 29.5t184 97.5l84 -250q-88 -76 -220 -117t-263 -41 q-195 0 -348.5 74t-241.5 221.5t-88 366.5z" />
<glyph unicode="D" horiz-adv-x="1585" d="M66 0l229 1444h487q352 0 545 -165t193 -460v-10q0 -225 -92 -407q-94 -186 -279.5 -294t-460.5 -108h-622zM424 260h268q170 0 279.5 70.5t163 195.5t53.5 289q0 178 -102.5 273.5t-303.5 95.5h-211z" />
<glyph unicode="E" horiz-adv-x="1239" d="M68 0l227 1444h989l-39 -248h-686l-53 -338h641l-39 -250h-641l-57 -360h684l-39 -248h-987z" />
<glyph unicode="F" horiz-adv-x="1167" d="M68 0l227 1444h975l-39 -248h-656l-57 -352h612l-38 -248h-613l-94 -596h-317z" />
<glyph unicode="G" horiz-adv-x="1519" d="M137 629q0 240 95.5 429t279.5 298.5t446 109.5q164 0 293 -45t201 -112l-123 -250q-170 131 -387 131q-154 0 -259 -74t-160.5 -197.5t-55.5 -275.5q0 -203 106.5 -299t296.5 -96q55 0 110.5 8t111.5 25l47 286h-312l35 230h574l-113 -721q-106 -49 -239.5 -74 t-260.5 -25q-201 0 -356.5 75t-242.5 220.5t-87 356.5z" />
<glyph unicode="H" horiz-adv-x="1597" d="M66 0l229 1444h317l-92 -580h670l94 580h318l-230 -1444h-317l94 600h-672l-94 -600h-317z" />
<glyph unicode="I" horiz-adv-x="608" d="M66 0l229 1444h317l-229 -1444h-317z" />
<glyph unicode="J" horiz-adv-x="761" d="M-74 -20l6 258l160 8q86 6 133 51t64 139l160 1008h317l-164 -1030q-20 -133 -73.5 -224.5t-154 -141.5t-259.5 -58z" />
<glyph unicode="K" horiz-adv-x="1406" d="M66 0l229 1444h317l-100 -629h4l684 629h397l-780 -713l582 -731h-361l-544 668h-5l-106 -668h-317z" />
<glyph unicode="L" horiz-adv-x="1173" d="M66 0l229 1444h317l-186 -1176h668l-43 -268h-985z" />
<glyph unicode="M" horiz-adv-x="1794" d="M70 0l229 1444h252l342 -893l629 893h272l-229 -1444h-287l139 885l-473 -668h-176l-272 662l-140 -879h-286z" />
<glyph unicode="N" horiz-adv-x="1540" d="M66 0l229 1444h235l570 -950l149 950h295l-229 -1444h-234l-571 950l-150 -950h-294z" />
<glyph unicode="O" horiz-adv-x="1630" d="M135 618q0 248 95.5 439.5t267.5 300t407 108.5q201 0 349.5 -75.5t229.5 -219t81 -344.5q0 -250 -94.5 -441t-267 -300t-408.5 -109q-199 0 -347.5 76t-230.5 219.5t-82 345.5zM467 623q0 -190 89 -282.5t245 -92.5q137 0 234.5 73.5t148.5 202.5t51 297 q0 190 -90 282.5t-246 92.5q-137 0 -233.5 -72.5t-147.5 -201.5t-51 -299z" />
<glyph unicode="P" horiz-adv-x="1359" d="M66 0l229 1444h584q252 0 378.5 -107.5t126.5 -302.5q0 -246 -149.5 -380t-433.5 -134h-336l-82 -520h-317zM506 766h307q266 0 266 242q0 188 -239 188h-267z" />
<glyph unicode="Q" horiz-adv-x="1630" d="M135 618q0 248 95.5 439.5t267.5 300t407 108.5q201 0 349.5 -75.5t229.5 -219t81 -344.5q0 -274 -114 -478t-316 -300q80 -31 125 -125l126 -274l-272 -101l-156 328q-25 55 -66.5 77.5t-127.5 22.5l2 3q-190 4 -332.5 81.5t-220.5 218t-78 338.5zM467 623 q0 -190 89 -282.5t245 -92.5q137 0 234.5 73.5t148.5 202.5t51 297q0 190 -90 282.5t-246 92.5q-137 0 -233.5 -72.5t-147.5 -201.5t-51 -299z" />
<glyph unicode="R" horiz-adv-x="1425" d="M66 0l229 1444h592q242 0 369.5 -108.5t127.5 -297.5q0 -201 -107.5 -314.5t-281.5 -145.5q55 -23 95 -72t67 -119l148 -387h-326l-166 438q-25 66 -63.5 93.5t-108.5 27.5h-170l-86 -559h-319zM508 788h311q125 0 192.5 56.5t67.5 167.5q0 92 -58 138t-185 46h-263z" />
<glyph unicode="S" horiz-adv-x="1312" d="M41 150l109 241q121 -82 248.5 -115.5t248.5 -33.5q131 0 204 47t73 121q0 59 -43 98t-144 61l-231 56q-152 35 -241 129t-89 243q0 147 82 253t217 161t293 55q135 0 273.5 -41t248.5 -127l-112 -229q-94 72 -204 102.5t-210 30.5q-125 0 -200 -48t-75 -128 q0 -61 40 -97t120 -57l230 -55q174 -39 266 -136t92 -232q0 -158 -86 -262.5t-227.5 -157t-305.5 -52.5q-160 0 -311 42t-266 131z" />
<glyph unicode="T" horiz-adv-x="1294" d="M119 1182l43 262h1272l-41 -262h-478l-188 -1182h-317l186 1182h-477z" />
<glyph unicode="U" horiz-adv-x="1519" d="M156 641l127 803h319l-131 -823q-8 -53 -8 -99q-1 -110 45 -178q64 -96 225 -96q145 0 232.5 77.5t115.5 245.5l138 873h315l-137 -862q-47 -293 -209 -449t-479 -156q-186 0 -323 73q-138 74 -202 220q-41 94 -40 221q0 70 12 150z" />
<glyph unicode="V" horiz-adv-x="1488" d="M115 1444h317l281 -1036l610 1036h350l-878 -1444h-260z" />
<glyph unicode="W" horiz-adv-x="2293" d="M182 1444h307l177 -989l508 989h231l180 -998l500 998h325l-745 -1444h-258l-186 956l-494 -956h-258z" />
<glyph unicode="X" horiz-adv-x="1402" d="M-111 0l660 745l-416 699h348l283 -498l418 498h389l-643 -727l428 -717h-352l-297 514l-431 -514h-387z" />
<glyph unicode="Y" horiz-adv-x="1292" d="M80 1444h348l270 -512l432 512h377l-678 -791l-104 -653h-317l102 651z" />
<glyph unicode="Z" horiz-adv-x="1259" d="M14 0l37 236l852 944h-700l41 264h1089l-37 -234l-850 -946h734l-41 -264h-1125z" />
<glyph unicode="[" horiz-adv-x="772" d="M76 -369l286 1813h529l-37 -230h-219l-213 -1353h219l-37 -230h-528z" />
<glyph unicode="\" horiz-adv-x="677" d="M117 1522l229 45l279 -1678l-230 -47z" />
<glyph unicode="]" horiz-adv-x="772" d="M-109 -369l35 230h221l215 1353h-221l37 230h529l-287 -1813h-529z" />
<glyph unicode="^" d="M57 287l568 999h229l250 -999h-221l-178 729l-408 -729h-240z" />
<glyph unicode="_" horiz-adv-x="1024" d="M-66 -180l29 180h940l-29 -180h-940z" />
<glyph unicode="`" horiz-adv-x="1024" d="M219 1556h293l201 -419h-203z" />
<glyph unicode="a" horiz-adv-x="1140" d="M47 293q0 160 136 232.5t427 72.5h140l4 27q3 20 3 38q0 57 -33 91q-44 45 -149 45q-180 0 -348 -101l-63 209q80 53 204 86t250 33q172 0 270 -64q99 -62 134 -170q21 -65 21 -140q0 -49 -9 -101l-86 -551h-289l23 147q-49 -88 -127 -129t-168 -41q-94 0 -172 44.5 t-123 116t-45 155.5zM344 313q0 -61 42.5 -95t105.5 -34q88 0 148 54.5t75 146.5l10 53h-109q-150 0 -211 -27.5t-61 -97.5z" />
<glyph unicode="b" horiz-adv-x="1249" d="M39 0l229 1444h310l-91 -576q57 76 139.5 117t182.5 41q170 0 272.5 -116.5t102.5 -317.5q0 -174 -61.5 -313.5t-175 -220.5t-269.5 -81q-106 0 -189 47.5t-122 137.5l-25 -162h-303zM426 430q0 -106 50 -163.5t138 -57.5q123 0 190.5 104.5t67.5 261.5q0 106 -50 163 t-138 57q-123 0 -190.5 -104.5t-67.5 -260.5z" />
<glyph unicode="c" horiz-adv-x="978" d="M68 442q0 113 35.5 217.5t107.5 187.5t183.5 131t260.5 48q100 0 193.5 -27.5t155.5 -76.5l-93 -213q-43 37 -105.5 59.5t-127.5 22.5q-109 0 -173.5 -51.5t-93 -130.5t-28.5 -163q0 -104 54.5 -167.5t178.5 -63.5q53 0 115 20.5t113 59.5l65 -215q-59 -49 -155.5 -76 t-184.5 -27q-252 0 -376.5 128t-124.5 337z" />
<glyph unicode="d" horiz-adv-x="1249" d="M66 414q0 174 61 312t175 219t267 81q104 0 185.5 -44t122.5 -130l94 592h309l-229 -1444h-303l24 152q-55 -82 -141.5 -128.5t-190.5 -46.5q-170 0 -272 118t-102 319zM377 430q0 -106 50 -163.5t138 -57.5q123 0 190.5 104.5t67.5 261.5q0 106 -50 163t-138 57 q-123 0 -190.5 -104.5t-67.5 -260.5z" />
<glyph unicode="e" horiz-adv-x="1124" d="M68 440q0 172 72.5 304.5t200.5 207t292 74.5q168 0 268 -72.5t139 -194.5q27 -83 27 -179q0 -44 -6 -91l-8 -53h-699q2 -109 70 -168t192 -59q86 0 167 24.5t145 71.5l67 -203q-74 -57 -182 -91t-227 -34q-158 0 -274.5 58.5t-180 162t-63.5 242.5zM377 596h446 q1 11 1 22q0 82 -41 138q-46 64 -152 65q-111 0 -172.5 -66.5t-81.5 -158.5z" />
<glyph unicode="f" horiz-adv-x="782" d="M51 774l35 232h190l7 30q29 184 149.5 294t376.5 120l131 6l-6 -225l-111 -6q-111 -6 -165 -48t-66 -130l-6 -41h258l-37 -232h-256l-125 -774h-309l125 774h-191z" />
<glyph unicode="g" horiz-adv-x="1259" d="M25 -254l92 211q86 -53 178 -85t192 -32q117 0 190 49.5t91 161.5l20 127q-51 -76 -135 -114.5t-182 -38.5q-182 0 -292.5 109.5t-110.5 303.5q0 160 63.5 294t179 214t269.5 80q106 0 189 -44t122 -130l24 154h304l-150 -938q-33 -219 -167 -339t-370 -120 q-152 0 -277.5 34.5t-229.5 102.5zM379 457v-7q0 -87 49 -140q51 -54 143 -54q84 0 143.5 47t91.5 124t32 167q0 92 -51.5 146.5t-145.5 54.5q-84 0 -142.5 -46.5t-89 -123t-30.5 -168.5z" />
<glyph unicode="h" horiz-adv-x="1218" d="M39 0l229 1444h310l-91 -578q111 160 330 160q164 0 251 -102q62 -73 62 -208q0 -54 -10 -118l-94 -598h-309l92 592q6 34 6 62q0 132 -129 132h-2q-104 0 -167.5 -66.5t-82.5 -182.5l-86 -537h-309z" />
<glyph unicode="i" horiz-adv-x="548" d="M39 0l160 1006h309l-160 -1006h-309zM219 1200l47 289h332l-45 -289h-334z" />
<glyph unicode="j" horiz-adv-x="559" d="M-215 -174l100 10q74 6 113 45t51 115l160 1010h309l-153 -971q-23 -143 -74 -233.5t-145.5 -135.5t-247.5 -55l-93 -6zM225 1200l47 289h332l-45 -289h-334z" />
<glyph unicode="k" horiz-adv-x="1142" d="M41 0l227 1444h310l-134 -854h5l428 416h362l-496 -496l369 -510h-354l-332 449h-4l-72 -449h-309z" />
<glyph unicode="l" horiz-adv-x="681" d="M100 381l168 1063h310l-168 -1059q-3 -22 -3 -41q0 -117 121 -117q20 0 43 2t45 4l-41 -235q-67 -21 -153 -21q-188 -1 -270 103q-60 76 -60 202q0 46 8 99z" />
<glyph unicode="m" horiz-adv-x="1820" d="M43 0l160 1006h303l-25 -150q59 88 143.5 129t174.5 41q207 0 274 -190q113 190 350 190q158 0 243 -102q60 -73 60 -206q0 -55 -10 -120l-94 -598h-309l94 596q5 32 5 59q0 131 -118 131q-88 0 -145 -65.5t-76 -183.5l-86 -537h-309l94 596q5 34 5 61q0 129 -118 129 q-86 0 -144 -65.5t-77 -183.5l-86 -537h-309z" />
<glyph unicode="n" horiz-adv-x="1218" d="M39 0l160 1006h303l-25 -154q111 174 340 174q164 0 251 -102q62 -73 62 -208q0 -54 -10 -118l-94 -598h-309l92 592q6 34 6 62q0 132 -129 132h-2q-104 0 -167.5 -66.5t-82.5 -182.5l-86 -537h-309z" />
<glyph unicode="o" horiz-adv-x="1206" d="M68 440q0 186 79.5 317.5t212 200t283.5 68.5q233 0 364.5 -126t131.5 -335q0 -188 -81 -319t-212 -200t-285 -69q-233 0 -363 126t-130 337zM379 430q0 -106 50 -163.5t140 -57.5q121 0 189.5 104.5t68.5 261.5q0 106 -51 163t-139 57q-123 0 -190.5 -104.5 t-67.5 -260.5z" />
<glyph unicode="p" horiz-adv-x="1249" d="M-18 -369l217 1375h303l-23 -148q55 80 140.5 124t189.5 44q170 0 272.5 -116.5t102.5 -317.5q0 -174 -61.5 -313.5t-175 -220.5t-269.5 -81q-102 0 -183 44.5t-122 128.5l-82 -519h-309zM426 430q0 -106 50 -163.5t138 -57.5q123 0 190.5 104.5t67.5 261.5 q0 106 -50 163t-138 57q-123 0 -190.5 -104.5t-67.5 -260.5z" />
<glyph unicode="q" horiz-adv-x="1249" d="M66 414q0 174 61 312t175 219t267 81q109 0 192 -47t122 -139l24 166h303l-219 -1375h-309l82 508q-57 -76 -140 -119t-184 -43q-170 0 -272 118t-102 319zM377 430q0 -106 50 -163.5t138 -57.5q123 0 190.5 104.5t67.5 261.5q0 106 -50 163t-138 57 q-123 0 -190.5 -104.5t-67.5 -260.5z" />
<glyph unicode="r" horiz-adv-x="843" d="M39 0l160 1006h303l-29 -172q47 84 129 134t195 58l94 6l-10 -260l-197 -20q-123 -12 -177 -71.5t-73 -176.5l-80 -504h-315z" />
<glyph unicode="s" horiz-adv-x="1007" d="M23 96l90 199q74 -49 168 -77t184 -28q88 0 132 31t44 78q0 68 -96 86l-187 35q-121 20 -186.5 89t-65.5 173q0 92 54.5 171t161 126t262.5 47q96 0 197.5 -27.5t174.5 -83.5l-86 -194q-68 47 -146.5 70.5t-156.5 23.5q-92 0 -138 -32.5t-46 -84.5q0 -29 19.5 -50 t64.5 -30l184 -34q266 -49 267 -262q0 -166 -124 -255.5t-327 -89.5q-131 0 -248 31t-196 88z" />
<glyph unicode="t" horiz-adv-x="827" d="M43 774l35 232h190l47 294h310l-47 -294h299l-37 -232h-297l-60 -366q-4 -27 -5 -50q0 -58 30 -88q41 -42 121 -41q51 0 110 19l15 -230q-39 -18 -94.5 -29.5t-106.5 -11.5q-217 0 -313 116q-74 89 -75 217q0 39 7 81l61 383h-190z" />
<glyph unicode="u" horiz-adv-x="1208" d="M100 408l95 598h309l-94 -594q-5 -33 -5 -60q0 -133 127 -133q96 0 160 66.5t82 183.5l84 537h309l-159 -1006h-301l22 150q-113 -173 -332 -173q-160 -1 -247 103q-61 73 -61 205q0 56 11 123z" />
<glyph unicode="v" horiz-adv-x="1093" d="M57 1006h312l149 -639l361 639h319l-602 -1006h-262z" />
<glyph unicode="w" horiz-adv-x="1763" d="M74 1006h295l137 -639l340 639h203l139 -656l346 656h315l-567 -1006h-262l-131 571l-307 -571h-258z" />
<glyph unicode="x" horiz-adv-x="1144" d="M-106 0l503 522l-317 484h348l178 -289l254 289h367l-469 -498l338 -508h-348l-197 307l-291 -307h-366z" />
<glyph unicode="y" horiz-adv-x="1091" d="M55 1006h312l149 -639l363 639h319l-825 -1375h-316l262 424z" />
<glyph unicode="z" horiz-adv-x="983" d="M14 0l33 199l555 575h-465l37 232h817l-30 -199l-560 -578h490l-37 -229h-840z" />
<glyph unicode="{" horiz-adv-x="847" d="M72 426l34 221l87 10q70 6 101.5 41t43.5 115l57 358q23 139 97.5 206t193.5 67h281l-39 -230h-129q-39 0 -66.5 -18t-36.5 -70l-53 -350q-16 -98 -78.5 -160.5t-128.5 -74.5q59 -16 101.5 -82t27.5 -162l-53 -348q-8 -51 9.5 -69.5t58.5 -18.5h135l-37 -230h-203 q-156 0 -227.5 78t-52.5 195l57 356q12 80 -6.5 115t-89.5 41z" />
<glyph unicode="|" horiz-adv-x="618" d="M18 -369l287 1813h309l-286 -1813h-310z" />
<glyph unicode="}" horiz-adv-x="847" d="M-106 -369l36 230h131q39 0 67 18.5t34 69.5l55 350q14 98 77.5 160.5t127.5 77.5q-59 16 -101 80.5t-28 162.5l55 346q8 51 -10.5 69.5t-56.5 18.5h-138l37 230h205q156 0 227.5 -78t53.5 -195l-58 -356q-12 -78 6.5 -113.5t87.5 -42.5l86 -8l-34 -223l-86 -8 q-70 -8 -103 -43t-45 -115l-57 -358q-20 -139 -96 -206t-193 -67h-280z" />
<glyph unicode="~" d="M121 539q49 104 118.5 162.5t161.5 58.5q68 0 133.5 -26.5t124.5 -53.5q49 -25 91.5 -43.5t78.5 -18.5q96 0 164 123l144 -106q-51 -100 -122 -158.5t-163 -58.5q-66 0 -131.5 25.5t-122.5 52.5q-49 27 -93 45t-81 18q-51 0 -90 -31.5t-70 -91.5z" />
<glyph unicode="&#xa1;" horiz-adv-x="532" d="M-63 -369l241 908h187l-48 -908h-380zM127 678l53 328h332l-53 -328h-332z" />
<glyph unicode="&#xa2;" d="M158 442q0 127 47 244t145.5 201t249.5 112l41 250h244l-39 -239q162 -18 264 -101l-88 -213q-96 84 -250 84q-111 0 -176.5 -50t-94 -128t-28.5 -156q0 -92 54.5 -154.5t183.5 -62.5q131 0 239 82l66 -217q-51 -43 -145.5 -70.5t-186.5 -29.5l-35 -230h-243l40 261 q-145 47 -216.5 157.5t-71.5 259.5z" />
<glyph unicode="&#xa3;" d="M6 0l41 256h152l59 369h-154l31 198h156l26 178q37 233 169 349t378 116q133 0 249 -45t192 -108l-127 -217q-72 66 -146 92t-149 26q-111 0 -170.5 -52t-75.5 -148l-29 -191h322l-31 -198h-324l-59 -369h606l-41 -256h-1075z" />
<glyph unicode="&#xa4;" d="M59 49l150 154q-43 63 -68.5 139t-25.5 160t24.5 160.5t69.5 140.5l-150 151l117 117l150 -153q61 43 133.5 67.5t152.5 24.5q160 0 285 -90l152 155l122 -125l-153 -153q90 -131 90 -295q0 -82 -24.5 -158t-67.5 -139l151 -156l-114 -112l-150 153q-61 -45 -135 -70.5 t-156 -25.5q-80 0 -153.5 24.5t-134.5 67.5l-150 -152zM362 502q0 -72 33 -132.5t90 -96t127 -35.5t126.5 35.5t89 96t32.5 132.5q0 74 -32.5 134t-89 96t-126.5 36q-68 0 -125 -36t-91 -96.5t-34 -133.5z" />
<glyph unicode="&#xa5;" d="M102 1444h330l240 -494l395 494h356l-508 -610h232l-31 -195h-321l-21 -127h322l-31 -197h-322l-51 -315h-317l49 315h-320l31 197h322l20 127h-321l30 195h234z" />
<glyph unicode="&#xa6;" horiz-adv-x="618" d="M18 -369l109 684h309l-108 -684h-310zM197 762l108 682h309l-108 -682h-309z" />
<glyph unicode="&#xa7;" horiz-adv-x="1196" d="M4 -252l98 197q70 -55 170.5 -89t194.5 -34t150.5 44t56.5 118q0 55 -26.5 90t-88.5 67l-250 138q-111 61 -168 143t-57 174q0 109 47 186.5t137 137.5q-29 61 -28 137q0 131 67.5 222t179 139t244.5 48q117 0 227.5 -31.5t204.5 -97.5l-86 -194q-72 49 -164 79.5 t-174 30.5q-94 0 -149 -44t-55 -119q0 -53 26.5 -89t87.5 -71l248 -135q227 -127 227 -320q0 -104 -48 -183t-136 -138q29 -59 29 -131q0 -133 -66.5 -225.5t-178.5 -140.5t-247 -48q-129 0 -250 36t-223 103zM356 653q0 -51 35 -94t98 -80l230 -121q27 -16 49.5 -31.5 t38.5 -31.5q23 31 34 63.5t11 63.5q0 51 -36 93t-101 81l-226 119q-29 16 -51 32.5t-39 34.5q-23 -35 -33 -67.5t-10 -61.5z" />
<glyph unicode="&#xa8;" horiz-adv-x="1024" d="M289 1208l43 271h268l-41 -271h-270zM694 1208l39 271h271l-41 -271h-269z" />
<glyph unicode="&#xa9;" horiz-adv-x="1669" d="M125 723q0 158 56.5 293t157.5 236.5t237.5 157.5t293.5 56q158 0 293 -56t236.5 -157.5t158 -236.5t56.5 -293t-56.5 -293t-158 -236.5t-236.5 -159t-293 -57.5t-294 57.5t-237 159t-157.5 236.5t-56.5 293zM252 723q0 -178 81 -319.5t220 -223.5t317 -82t317.5 82 t219.5 223.5t80 319.5t-80 318.5t-219 222.5t-318 82q-178 0 -317 -82t-220 -222.5t-81 -318.5zM457 723q0 205 124 322.5t332 117.5q80 0 162 -24.5t135 -67.5l-71 -182q-90 76 -203 76q-102 0 -160.5 -63.5t-58.5 -178.5q0 -113 58.5 -177.5t160.5 -64.5q117 0 203 76 l71 -182q-53 -43 -135 -68.5t-162 -25.5q-209 0 -332.5 119.5t-123.5 322.5z" />
<glyph unicode="&#xaa;" horiz-adv-x="708" d="M123 1024q0 94 93 139t269 45h86l2 13q16 100 -106 100q-55 0 -109.5 -11.5t-107.5 -39.5l-43 131q49 33 128 49t157 16q160 0 223 -85t43 -205l-51 -330h-185l19 112h-6q-72 -127 -201 -127q-90 0 -150.5 57.5t-60.5 135.5zM317 1036q0 -35 23.5 -55t62.5 -20 q53 0 96.5 34.5t51.5 85.5l4 27h-66q-172 0 -172 -72z" />
<glyph unicode="&#xab;" horiz-adv-x="1075" d="M111 471l22 150l268 331l199 -98l-223 -322l94 -305l-211 -88zM566 471l22 150l268 331l199 -98l-223 -322l94 -305l-211 -88z" />
<glyph unicode="&#xac;" d="M143 688l35 211h998l-99 -623h-219l66 412h-781z" />
<glyph unicode="&#xad;" horiz-adv-x="901" d="M123 428l39 242h631l-37 -242h-633z" />
<glyph unicode="&#xae;" horiz-adv-x="1669" d="M125 723q0 158 56.5 293t157.5 236.5t237.5 157.5t293.5 56q158 0 293 -56t236.5 -157.5t158 -236.5t56.5 -293t-56.5 -293t-158 -236.5t-236.5 -159t-293 -57.5t-294 57.5t-237 159t-157.5 236.5t-56.5 293zM252 723q0 -178 81 -319.5t220 -223.5t317 -82t317.5 82 t219.5 223.5t80 319.5t-80 318.5t-219 222.5t-318 82q-178 0 -317 -82t-220 -222.5t-81 -318.5zM539 291v866h389q147 0 227 -72.5t80 -185.5q0 -90 -45 -148.5t-127 -80.5q41 -12 68.5 -49t46.5 -111l65 -219h-235l-70 250q-12 41 -36.5 55t-61.5 14h-68v-319h-233z M770 780h125q121 0 121 105q0 104 -121 104h-125v-209z" />
<glyph unicode="&#xaf;" horiz-adv-x="1024" d="M299 1251l27 174h667l-26 -174h-668z" />
<glyph unicode="&#xb0;" horiz-adv-x="786" d="M162 1130q0 92 43 166t118.5 116t170.5 42q94 0 168.5 -42t118.5 -115.5t44 -166.5q0 -92 -44 -165.5t-118.5 -115.5t-168.5 -42q-96 0 -171 42t-118 115.5t-43 165.5zM342 1130q0 -68 43 -112.5t109 -44.5q63 0 107 45t44 112q0 68 -44 113t-107 45q-66 0 -109 -45 t-43 -113z" />
<glyph unicode="&#xb1;" d="M37 0l31 211h999l-31 -211h-999zM129 588l35 213h389l45 289h219l-45 -289h391l-35 -213h-391l-45 -289h-219l45 289h-389z" />
<glyph unicode="&#xb2;" horiz-adv-x="778" d="M102 578l29 178l303 264q47 43 73.5 83t26.5 79q2 72 -94 72q-49 0 -98 -20.5t-92 -53.5l-62 180q145 92 320 92q141 0 216 -71.5t73 -165.5q0 -90 -50.5 -160.5t-156.5 -154.5l-144 -121h320l-33 -201h-631z" />
<glyph unicode="&#xb3;" horiz-adv-x="778" d="M78 672l86 160q49 -41 105 -56.5t136 -15.5q55 0 89 21.5t34 68.5q2 68 -104 68h-170l33 190h149q57 0 92 19.5t37 62.5q0 70 -108 70q-57 0 -112.5 -17.5t-107.5 -52.5l-59 170q147 92 317 92q139 0 221.5 -58t84.5 -154q0 -74 -50.5 -133.5t-130.5 -84.5 q66 -23 104 -72.5t38 -117.5q0 -76 -46 -136.5t-126.5 -94t-180.5 -33.5q-96 0 -187 26.5t-144 77.5z" />
<glyph unicode="&#xb4;" horiz-adv-x="1024" d="M512 1137l271 419h301l-369 -419h-203z" />
<glyph unicode="&#xb5;" d="M-10 -369l219 1375h309l-94 -594q-31 -193 123 -193q96 0 159.5 66.5t81.5 183.5l84 537h310l-158 -1006h-303l29 186q-31 -100 -92.5 -154.5t-139.5 -54.5q-129 0 -172 95l-47 -441h-309z" />
<glyph unicode="&#xb6;" horiz-adv-x="1320" d="M133 936q0 152 63.5 266.5t178 178t270.5 63.5h680l-287 -1813h-217l252 1598h-225l-254 -1598h-217l143 912q-119 0 -206 52t-134 141t-47 200z" />
<glyph unicode="&#xb7;" horiz-adv-x="532" d="M82 385l51 328h332l-51 -328h-332z" />
<glyph unicode="&#xb8;" horiz-adv-x="1024" d="M164 -358l55 131q72 -37 150 -37q111 0 110 57q0 37 -72 37q-16 0 -34.5 -2t-42.5 -8l-39 41l55 180h156l-37 -111h8q86 0 133 -36.5t47 -102.5q0 -88 -76.5 -141t-191.5 -53q-63 0 -121.5 11t-99.5 34z" />
<glyph unicode="&#xb9;" horiz-adv-x="778" d="M123 578l30 201h213l60 381l-158 -78l-80 188l353 174h176l-105 -665h162l-33 -201h-618z" />
<glyph unicode="&#xba;" horiz-adv-x="739" d="M139 1130q0 104 46 179t124 116t174 41q141 0 232.5 -79.5t91.5 -215.5q0 -102 -47 -177.5t-125 -116.5t-174 -41q-139 0 -230.5 79.5t-91.5 214.5zM340 1130q0 -72 35 -108.5t90 -36.5q61 0 101 47t40 142q0 72 -34.5 108.5t-90.5 36.5q-63 0 -102 -47t-39 -142z" />
<glyph unicode="&#xbb;" horiz-adv-x="1075" d="M33 240l223 319l-92 305l211 88l149 -329l-24 -152l-269 -332zM488 240l223 319l-92 305l211 88l149 -329l-24 -152l-269 -332z" />
<glyph unicode="&#xbc;" horiz-adv-x="1888" d="M123 578l30 201h213l60 381l-158 -78l-80 188l353 174h176l-105 -665h162l-33 -201h-618zM420 55l1071 1450l176 -114l-1071 -1452zM1090 135l26 166l481 565h220l-86 -538h102l-31 -193h-100l-23 -135h-233l22 135h-378zM1343 328h158l39 231z" />
<glyph unicode="&#xbd;" horiz-adv-x="1990" d="M123 578l30 201h213l60 381l-158 -78l-80 188l353 174h176l-105 -665h162l-33 -201h-618zM420 55l1071 1450l176 -114l-1071 -1452zM1222 0l29 178l303 264q47 43 73.5 83t26.5 79q2 72 -94 72q-49 0 -98 -20.5t-92 -53.5l-62 180q145 92 320 92q141 0 216 -71.5 t73 -165.5q0 -90 -50.5 -160.5t-156.5 -154.5l-144 -121h320l-33 -201h-631z" />
<glyph unicode="&#xbe;" horiz-adv-x="1888" d="M78 672l86 160q49 -41 105 -56.5t136 -15.5q55 0 89 21.5t34 68.5q2 68 -104 68h-170l33 190h149q57 0 92 19.5t37 62.5q0 70 -108 70q-57 0 -112.5 -17.5t-107.5 -52.5l-59 170q147 92 317 92q139 0 221.5 -58t84.5 -154q0 -74 -50.5 -133.5t-130.5 -84.5 q66 -23 104 -72.5t38 -117.5q0 -76 -46 -136.5t-126.5 -94t-180.5 -33.5q-96 0 -187 26.5t-144 77.5zM420 55l1071 1450l176 -114l-1071 -1452zM1090 135l26 166l481 565h220l-86 -538h102l-31 -193h-100l-23 -135h-233l22 135h-378zM1343 328h158l39 231z" />
<glyph unicode="&#xbf;" horiz-adv-x="958" d="M-68 -84q0 113 62.5 197t171.5 147q109 66 151.5 117t63.5 112l20 58h185l-15 -86q-12 -92 -53 -162t-139 -137q-66 -45 -98.5 -86t-32.5 -94q0 -47 35.5 -78t105.5 -31q90 0 179 26.5t177 94.5l93 -232q-109 -84 -239 -118.5t-263 -34.5q-123 0 -214 41t-140.5 110.5 t-49.5 155.5zM348 676l51 328h332l-51 -328h-332z" />
<glyph unicode="&#xc0;" horiz-adv-x="1542" d="M-100 0l895 1444h256l432 -1444h-303l-82 313h-680l-185 -313h-333zM521 1925h309l217 -358h-215zM563 561h467l-143 545h-4z" />
<glyph unicode="&#xc1;" horiz-adv-x="1542" d="M-100 0l895 1444h256l432 -1444h-303l-82 313h-680l-185 -313h-333zM563 561h467l-143 545h-4zM832 1567l266 358h322l-373 -358h-215z" />
<glyph unicode="&#xc2;" horiz-adv-x="1542" d="M-100 0l895 1444h256l432 -1444h-303l-82 313h-680l-185 -313h-333zM541 1567l291 358h258l223 -358h-213l-153 194l-195 -194h-211zM563 561h467l-143 545h-4z" />
<glyph unicode="&#xc3;" horiz-adv-x="1542" d="M-100 0l895 1444h256l432 -1444h-303l-82 313h-680l-185 -313h-333zM459 1577q25 156 106 238.5t201 82.5q59 0 112.5 -22.5t102.5 -44.5q41 -23 79 -39t75 -16q113 0 150 131l145 -9q-23 -156 -103.5 -238.5t-199.5 -82.5q-63 0 -115.5 22.5t-99.5 47.5q-43 20 -80 36.5 t-76 16.5q-114 0 -149 -131zM563 561h467l-143 545h-4z" />
<glyph unicode="&#xc4;" horiz-adv-x="1542" d="M-100 0l895 1444h256l432 -1444h-303l-82 313h-680l-185 -313h-333zM563 561h467l-143 545h-4zM607 1599l41 271h270l-43 -271h-268zM1008 1599l45 271h268l-43 -271h-270z" />
<glyph unicode="&#xc5;" horiz-adv-x="1542" d="M-100 0l895 1444h256l432 -1444h-303l-82 313h-680l-185 -313h-333zM563 561h467l-143 545h-4zM695 1802q0 74 35.5 132.5t96 92t136.5 33.5t136.5 -33.5t95 -92t34.5 -132.5t-34.5 -132t-95 -93t-136.5 -35t-136.5 35t-96 93.5t-35.5 131.5zM838 1802q0 -55 36 -91 t89 -36t89 36t36 91t-36 90t-89 35t-89 -34.5t-36 -90.5z" />
<glyph unicode="&#xc6;" horiz-adv-x="2048" d="M-178 0l1136 1444h1131l-39 -248h-784l20 -338h666l-39 -250h-613l21 -360h580l-39 -248h-801l-19 313h-636l-236 -313h-348zM590 561h438l-31 535h-4z" />
<glyph unicode="&#xc7;" horiz-adv-x="1398" d="M137 639q0 174 53.5 323.5t154.5 263t249.5 177t339.5 63.5q150 0 278.5 -46t204.5 -120l-125 -251q-164 137 -364 137q-147 0 -248.5 -71t-153 -192.5t-51.5 -273.5q0 -205 93.5 -298t283.5 -93q88 0 178 29.5t184 97.5l84 -250q-88 -76 -220 -117t-263 -41 q-195 0 -348.5 74t-241.5 221.5t-88 366.5zM496 -358l55 131q72 -37 150 -37q111 0 110 57q0 37 -72 37q-16 0 -34.5 -2t-42.5 -8l-39 41l55 180h156l-37 -111h8q86 0 133 -36.5t47 -102.5q0 -88 -76.5 -141t-191.5 -53q-63 0 -121.5 11t-99.5 34z" />
<glyph unicode="&#xc8;" horiz-adv-x="1239" d="M68 0l227 1444h989l-39 -248h-686l-53 -338h641l-39 -250h-641l-57 -360h684l-39 -248h-987zM426 1925h309l217 -358h-215z" />
<glyph unicode="&#xc9;" horiz-adv-x="1239" d="M68 0l227 1444h989l-39 -248h-686l-53 -338h641l-39 -250h-641l-57 -360h684l-39 -248h-987zM737 1567l266 358h322l-373 -358h-215z" />
<glyph unicode="&#xca;" horiz-adv-x="1239" d="M68 0l227 1444h989l-39 -248h-686l-53 -338h641l-39 -250h-641l-57 -360h684l-39 -248h-987zM446 1567l291 358h258l223 -358h-213l-153 194l-195 -194h-211z" />
<glyph unicode="&#xcb;" horiz-adv-x="1239" d="M68 0l227 1444h989l-39 -248h-686l-53 -338h641l-39 -250h-641l-57 -360h684l-39 -248h-987zM512 1599l41 271h270l-43 -271h-268zM913 1599l45 271h268l-43 -271h-270z" />
<glyph unicode="&#xcc;" horiz-adv-x="608" d="M56 1925h309l217 -358h-215zM66 0l229 1444h317l-229 -1444h-317z" />
<glyph unicode="&#xcd;" horiz-adv-x="608" d="M66 0l229 1444h317l-229 -1444h-317zM367 1567l266 358h322l-373 -358h-215z" />
<glyph unicode="&#xce;" horiz-adv-x="608" d="M66 0l229 1444h317l-229 -1444h-317zM76 1567l291 358h258l223 -358h-213l-153 194l-195 -194h-211z" />
<glyph unicode="&#xcf;" horiz-adv-x="608" d="M66 0l229 1444h317l-229 -1444h-317zM142 1599l41 271h270l-43 -271h-268zM543 1599l45 271h268l-43 -271h-270z" />
<glyph unicode="&#xd0;" horiz-adv-x="1585" d="M-13 616l37 228h873l-37 -228h-873zM66 0l229 1444h487q352 0 545 -165t193 -460q2 -231 -92.5 -417.5t-279.5 -294t-460 -107.5h-622zM424 260h268q170 0 279.5 70.5t163 195.5t53.5 289q0 178 -102.5 273.5t-303.5 95.5h-211z" />
<glyph unicode="&#xd1;" horiz-adv-x="1540" d="M66 0l229 1444h235l570 -950l149 950h295l-229 -1444h-234l-571 950l-150 -950h-294zM454 1577q25 156 106 238.5t201 82.5q59 0 112.5 -22.5t102.5 -44.5q41 -23 79 -39t75 -16q113 0 150 131l145 -9q-23 -156 -103.5 -238.5t-199.5 -82.5q-63 0 -115.5 22.5t-99.5 47.5 q-43 20 -80 36.5t-76 16.5q-114 0 -149 -131z" />
<glyph unicode="&#xd2;" horiz-adv-x="1630" d="M135 618q0 248 95.5 439.5t267.5 300t407 108.5q201 0 349.5 -75.5t229.5 -219t81 -344.5q0 -250 -94.5 -441t-267 -300t-408.5 -109q-199 0 -347.5 76t-230.5 219.5t-82 345.5zM467 623q0 -190 89 -282.5t245 -92.5q137 0 234.5 73.5t148.5 202.5t51 297 q0 190 -90 282.5t-246 92.5q-137 0 -233.5 -72.5t-147.5 -201.5t-51 -299zM539 1925h309l217 -358h-215z" />
<glyph unicode="&#xd3;" horiz-adv-x="1630" d="M135 618q0 248 95.5 439.5t267.5 300t407 108.5q201 0 349.5 -75.5t229.5 -219t81 -344.5q0 -250 -94.5 -441t-267 -300t-408.5 -109q-199 0 -347.5 76t-230.5 219.5t-82 345.5zM467 623q0 -190 89 -282.5t245 -92.5q137 0 234.5 73.5t148.5 202.5t51 297 q0 190 -90 282.5t-246 92.5q-137 0 -233.5 -72.5t-147.5 -201.5t-51 -299zM850 1567l266 358h322l-373 -358h-215z" />
<glyph unicode="&#xd4;" horiz-adv-x="1630" d="M135 618q0 248 95.5 439.5t267.5 300t407 108.5q201 0 349.5 -75.5t229.5 -219t81 -344.5q0 -250 -94.5 -441t-267 -300t-408.5 -109q-199 0 -347.5 76t-230.5 219.5t-82 345.5zM467 623q0 -190 89 -282.5t245 -92.5q137 0 234.5 73.5t148.5 202.5t51 297 q0 190 -90 282.5t-246 92.5q-137 0 -233.5 -72.5t-147.5 -201.5t-51 -299zM559 1567l291 358h258l223 -358h-213l-153 194l-195 -194h-211z" />
<glyph unicode="&#xd5;" horiz-adv-x="1630" d="M135 618q0 248 95.5 439.5t267.5 300t407 108.5q201 0 349.5 -75.5t229.5 -219t81 -344.5q0 -250 -94.5 -441t-267 -300t-408.5 -109q-199 0 -347.5 76t-230.5 219.5t-82 345.5zM467 623q0 -190 89 -282.5t245 -92.5q137 0 234.5 73.5t148.5 202.5t51 297 q0 190 -90 282.5t-246 92.5q-137 0 -233.5 -72.5t-147.5 -201.5t-51 -299zM477 1577q25 156 106 238.5t201 82.5q59 0 112.5 -22.5t102.5 -44.5q41 -23 79 -39t75 -16q113 0 150 131l145 -9q-23 -156 -103.5 -238.5t-199.5 -82.5q-63 0 -115.5 22.5t-99.5 47.5 q-43 20 -80 36.5t-76 16.5q-114 0 -149 -131z" />
<glyph unicode="&#xd6;" horiz-adv-x="1630" d="M135 618q0 248 95.5 439.5t267.5 300t407 108.5q201 0 349.5 -75.5t229.5 -219t81 -344.5q0 -250 -94.5 -441t-267 -300t-408.5 -109q-199 0 -347.5 76t-230.5 219.5t-82 345.5zM467 623q0 -190 89 -282.5t245 -92.5q137 0 234.5 73.5t148.5 202.5t51 297 q0 190 -90 282.5t-246 92.5q-137 0 -233.5 -72.5t-147.5 -201.5t-51 -299zM625 1599l41 271h270l-43 -271h-268zM1026 1599l45 271h268l-43 -271h-270z" />
<glyph unicode="&#xd7;" d="M119 254l360 334l-301 327l154 150l303 -330l358 330l144 -150l-361 -329l301 -332l-151 -148l-303 330l-359 -330z" />
<glyph unicode="&#xd8;" horiz-adv-x="1630" d="M135 618q0 248 95.5 439.5t267.5 300t407 108.5q201 0 349.5 -75.5t229.5 -219t81 -344.5q0 -250 -94.5 -441t-267 -300t-408.5 -109q-199 0 -347.5 76t-230.5 219.5t-82 345.5zM176 8l182 242l107 129l612 815l84 131l178 240l183 -125l-180 -242l-109 -131l-610 -815 l-84 -131l-181 -240zM467 623q0 -190 89 -282.5t245 -92.5q137 0 234.5 73.5t148.5 202.5t51 297q0 190 -90 282.5t-246 92.5q-137 0 -233.5 -72.5t-147.5 -201.5t-51 -299z" />
<glyph unicode="&#xd9;" horiz-adv-x="1519" d="M156 641l127 803h319l-131 -823q-27 -180 37.5 -276.5t224.5 -96.5q145 0 232.5 77.5t115.5 245.5l138 873h315l-137 -862q-47 -293 -209 -449t-479 -156q-186 0 -323.5 73t-201 219.5t-28.5 371.5zM510 1925h309l217 -358h-215z" />
<glyph unicode="&#xda;" horiz-adv-x="1519" d="M156 641l127 803h319l-131 -823q-27 -180 37.5 -276.5t224.5 -96.5q145 0 232.5 77.5t115.5 245.5l138 873h315l-137 -862q-47 -293 -209 -449t-479 -156q-186 0 -323.5 73t-201 219.5t-28.5 371.5zM821 1567l266 358h322l-373 -358h-215z" />
<glyph unicode="&#xdb;" horiz-adv-x="1519" d="M156 641l127 803h319l-131 -823q-27 -180 37.5 -276.5t224.5 -96.5q145 0 232.5 77.5t115.5 245.5l138 873h315l-137 -862q-47 -293 -209 -449t-479 -156q-186 0 -323.5 73t-201 219.5t-28.5 371.5zM530 1567l291 358h258l223 -358h-213l-153 194l-195 -194h-211z" />
<glyph unicode="&#xdc;" horiz-adv-x="1519" d="M156 641l127 803h319l-131 -823q-27 -180 37.5 -276.5t224.5 -96.5q145 0 232.5 77.5t115.5 245.5l138 873h315l-137 -862q-47 -293 -209 -449t-479 -156q-186 0 -323.5 73t-201 219.5t-28.5 371.5zM596 1599l41 271h270l-43 -271h-268zM997 1599l45 271h268l-43 -271 h-270z" />
<glyph unicode="&#xdd;" horiz-adv-x="1292" d="M80 1444h348l270 -512l432 512h377l-678 -791l-104 -653h-317l102 651zM682 1567l266 358h322l-373 -358h-215z" />
<glyph unicode="&#xde;" horiz-adv-x="1363" d="M66 0l229 1444h317l-37 -230h273q250 0 378 -107.5t128 -299.5q0 -246 -150.5 -382t-435.5 -136h-340l-45 -289h-317zM467 537h315q266 0 267 241q0 98 -59.5 143.5t-182.5 45.5h-270z" />
<glyph unicode="&#xdf;" horiz-adv-x="1384" d="M41 0l145 924q27 172 96.5 292.5t195.5 185t321 64.5q125 0 215 -38.5t139 -103t49 -142.5q0 -88 -40 -151.5t-115 -129.5q-78 -70 -107 -101.5t-29 -66.5q0 -39 39 -65.5t125 -55.5q115 -43 177.5 -108.5t62.5 -175.5q0 -115 -56.5 -193t-154.5 -118t-223 -40t-238 37 t-182 97l100 198q74 -49 160 -76.5t166 -27.5q70 0 109.5 23.5t39.5 72.5q0 37 -35.5 65.5t-132.5 61.5q-127 45 -182 106.5t-55 145.5q0 92 44 158.5t138 146.5q47 39 73.5 75t26.5 85q0 39 -29.5 69.5t-95.5 30.5q-123 0 -192.5 -65.5t-91.5 -206.5l-154 -973h-309z" />
<glyph unicode="&#xe0;" horiz-adv-x="1140" d="M47 293q0 160 136 232.5t427 72.5h140l4 27q14 84 -30 129t-149 45q-180 0 -348 -101l-63 209q80 53 204 86t250 33q172 0 270.5 -63.5t133.5 -171t12 -240.5l-86 -551h-289l23 147q-49 -88 -127 -129t-168 -41q-94 0 -172 44.5t-123 116t-45 155.5zM270 1556h293 l201 -419h-203zM344 313q0 -61 42.5 -95t105.5 -34q88 0 148 54.5t75 146.5l10 53h-109q-150 0 -211 -27.5t-61 -97.5z" />
<glyph unicode="&#xe1;" horiz-adv-x="1140" d="M47 293q0 160 136 232.5t427 72.5h140l4 27q14 84 -30 129t-149 45q-180 0 -348 -101l-63 209q80 53 204 86t250 33q172 0 270.5 -63.5t133.5 -171t12 -240.5l-86 -551h-289l23 147q-49 -88 -127 -129t-168 -41q-94 0 -172 44.5t-123 116t-45 155.5zM344 313 q0 -61 42.5 -95t105.5 -34q88 0 148 54.5t75 146.5l10 53h-109q-150 0 -211 -27.5t-61 -97.5zM563 1137l271 419h301l-369 -419h-203z" />
<glyph unicode="&#xe2;" horiz-adv-x="1140" d="M47 293q0 160 136 232.5t427 72.5h140l4 27q14 84 -30 129t-149 45q-180 0 -348 -101l-63 209q80 53 204 86t250 33q172 0 270.5 -63.5t133.5 -171t12 -240.5l-86 -551h-289l23 147q-49 -88 -127 -129t-168 -41q-94 0 -172 44.5t-123 116t-45 155.5zM295 1137l268 419 h262l187 -419h-191l-139 252l-195 -252h-192zM344 313q0 -61 42.5 -95t105.5 -34q88 0 148 54.5t75 146.5l10 53h-109q-150 0 -211 -27.5t-61 -97.5z" />
<glyph unicode="&#xe3;" horiz-adv-x="1140" d="M47 293q0 160 136 232.5t427 72.5h140l4 27q14 84 -30 129t-149 45q-180 0 -348 -101l-63 209q80 53 204 86t250 33q172 0 270.5 -63.5t133.5 -171t12 -240.5l-86 -551h-289l23 147q-49 -88 -127 -129t-168 -41q-94 0 -172 44.5t-123 116t-45 155.5zM260 1198 q18 156 94 239t187 83q57 0 97 -25t75 -51q29 -18 56.5 -32.5t61.5 -14.5q102 0 136 131l145 -8q-18 -156 -93 -239t-185 -83q-59 0 -100.5 23.5t-76.5 50.5q-29 20 -56.5 34.5t-59.5 14.5q-103 0 -136 -131zM344 313q0 -61 42.5 -95t105.5 -34q88 0 148 54.5t75 146.5 l10 53h-109q-150 0 -211 -27.5t-61 -97.5z" />
<glyph unicode="&#xe4;" horiz-adv-x="1140" d="M47 293q0 160 136 232.5t427 72.5h140l4 27q14 84 -30 129t-149 45q-180 0 -348 -101l-63 209q80 53 204 86t250 33q172 0 270.5 -63.5t133.5 -171t12 -240.5l-86 -551h-289l23 147q-49 -88 -127 -129t-168 -41q-94 0 -172 44.5t-123 116t-45 155.5zM340 1208l43 271h268 l-41 -271h-270zM344 313q0 -61 42.5 -95t105.5 -34q88 0 148 54.5t75 146.5l10 53h-109q-150 0 -211 -27.5t-61 -97.5zM745 1208l39 271h271l-41 -271h-269z" />
<glyph unicode="&#xe5;" horiz-adv-x="1140" d="M47 293q0 160 136 232.5t427 72.5h140l4 27q14 84 -30 129t-149 45q-180 0 -348 -101l-63 209q80 53 204 86t250 33q172 0 270.5 -63.5t133.5 -171t12 -240.5l-86 -551h-289l23 147q-49 -88 -127 -129t-168 -41q-94 0 -172 44.5t-123 116t-45 155.5zM344 313 q0 -61 42.5 -95t105.5 -34q88 0 148 54.5t75 146.5l10 53h-109q-150 0 -211 -27.5t-61 -97.5zM436 1374q0 74 35 133.5t96.5 93t134.5 33.5q76 0 136.5 -33.5t96.5 -93t36 -133.5q0 -72 -36 -130t-96.5 -93t-136.5 -35q-74 0 -135 35t-96 93.5t-35 129.5zM578 1374 q0 -53 35.5 -89t88.5 -36t89 36t36 89q0 55 -35.5 90t-89.5 35q-53 0 -88.5 -34.5t-35.5 -90.5z" />
<glyph unicode="&#xe6;" horiz-adv-x="1777" d="M47 293q0 160 136 232.5t427 72.5h135l5 23q12 86 -29 130t-146 44q-90 0 -177 -25t-167 -74l-67 211q80 53 204 86t250 33q229 0 322 -139q137 139 348 139q166 0 267.5 -71.5t141.5 -191.5t17 -265l-8 -60h-690q-2 -109 64.5 -169t189.5 -60q186 0 311 96l70 -203 q-76 -57 -184.5 -91t-229.5 -34q-147 0 -252.5 54.5t-159.5 152.5q-55 -106 -157.5 -156.5t-221.5 -50.5q-104 0 -195 35t-147.5 105.5t-56.5 175.5zM344 309q0 -53 41 -86t104 -33q88 0 146.5 49.5t75.5 141.5l8 57h-101q-150 0 -212 -29.5t-62 -99.5zM1038 598h435 q6 94 -38.5 157.5t-150.5 63.5t-165.5 -65.5t-80.5 -155.5z" />
<glyph unicode="&#xe7;" horiz-adv-x="978" d="M68 442q0 113 35.5 217.5t107.5 187.5t183.5 131t260.5 48q100 0 193.5 -27.5t155.5 -76.5l-93 -213q-43 37 -105.5 59.5t-127.5 22.5q-109 0 -173.5 -51.5t-93 -130.5t-28.5 -163q0 -104 54.5 -167.5t178.5 -63.5q53 0 115 20.5t113 59.5l65 -215q-59 -49 -155.5 -76 t-184.5 -27q-252 0 -376.5 128t-124.5 337zM240 -358l55 131q72 -37 150 -37q111 0 110 57q0 37 -72 37q-16 0 -34.5 -2t-42.5 -8l-39 41l55 180h156l-37 -111h8q86 0 133 -36.5t47 -102.5q0 -88 -76.5 -141t-191.5 -53q-63 0 -121.5 11t-99.5 34z" />
<glyph unicode="&#xe8;" horiz-adv-x="1124" d="M68 440q0 172 72.5 304.5t200.5 207t292 74.5q168 0 268 -72.5t139 -194.5t21 -270l-8 -53h-699q2 -109 70 -168t192 -59q86 0 167 24.5t145 71.5l67 -203q-74 -57 -182 -91t-227 -34q-158 0 -274.5 58.5t-180 162t-63.5 242.5zM293 1556h293l201 -419h-203zM377 596h446 q6 96 -40 160.5t-152 64.5q-111 0 -172.5 -66.5t-81.5 -158.5z" />
<glyph unicode="&#xe9;" horiz-adv-x="1124" d="M68 440q0 172 72.5 304.5t200.5 207t292 74.5q168 0 268 -72.5t139 -194.5t21 -270l-8 -53h-699q2 -109 70 -168t192 -59q86 0 167 24.5t145 71.5l67 -203q-74 -57 -182 -91t-227 -34q-158 0 -274.5 58.5t-180 162t-63.5 242.5zM377 596h446q6 96 -40 160.5t-152 64.5 q-111 0 -172.5 -66.5t-81.5 -158.5zM586 1137l271 419h301l-369 -419h-203z" />
<glyph unicode="&#xea;" horiz-adv-x="1124" d="M68 440q0 172 72.5 304.5t200.5 207t292 74.5q168 0 268 -72.5t139 -194.5t21 -270l-8 -53h-699q2 -109 70 -168t192 -59q86 0 167 24.5t145 71.5l67 -203q-74 -57 -182 -91t-227 -34q-158 0 -274.5 58.5t-180 162t-63.5 242.5zM318 1137l268 419h262l187 -419h-191 l-139 252l-195 -252h-192zM377 596h446q6 96 -40 160.5t-152 64.5q-111 0 -172.5 -66.5t-81.5 -158.5z" />
<glyph unicode="&#xeb;" horiz-adv-x="1124" d="M68 440q0 172 72.5 304.5t200.5 207t292 74.5q168 0 268 -72.5t139 -194.5t21 -270l-8 -53h-699q2 -109 70 -168t192 -59q86 0 167 24.5t145 71.5l67 -203q-74 -57 -182 -91t-227 -34q-158 0 -274.5 58.5t-180 162t-63.5 242.5zM363 1208l43 271h268l-41 -271h-270z M377 596h446q6 96 -40 160.5t-152 64.5q-111 0 -172.5 -66.5t-81.5 -158.5zM768 1208l39 271h271l-41 -271h-269z" />
<glyph unicode="&#xec;" horiz-adv-x="548" d="M-19 1556h293l201 -419h-203zM39 0l160 1006h309l-160 -1006h-309z" />
<glyph unicode="&#xed;" horiz-adv-x="548" d="M39 0l160 1006h309l-160 -1006h-309zM274 1137l271 419h301l-369 -419h-203z" />
<glyph unicode="&#xee;" horiz-adv-x="548" d="M6 1137l268 419h262l187 -419h-191l-139 252l-195 -252h-192zM39 0l160 1006h309l-160 -1006h-309z" />
<glyph unicode="&#xef;" horiz-adv-x="548" d="M39 0l160 1006h309l-160 -1006h-309zM51 1208l43 271h268l-41 -271h-270zM456 1208l39 271h271l-41 -271h-269z" />
<glyph unicode="&#xf0;" horiz-adv-x="1214" d="M59 401q0 154 70 269.5t187.5 181.5t265.5 66q92 0 170.5 -28t126.5 -91q-16 102 -69.5 187t-131.5 151l-328 -146l-61 133l235 103q-88 39 -180 51l66 188q109 -18 199.5 -51t164.5 -76l285 127l63 -131l-211 -96q131 -119 190.5 -274.5t59.5 -313.5 q0 -190 -69.5 -342.5t-206.5 -242t-338 -89.5q-139 0 -250 54.5t-174.5 149.5t-63.5 220zM371 408q0 -90 55 -142.5t149 -52.5q106 0 177 76t71 209q0 88 -54 140t-151 52q-106 0 -176.5 -74.5t-70.5 -207.5z" />
<glyph unicode="&#xf1;" horiz-adv-x="1218" d="M39 0l160 1006h303l-25 -154q111 174 340 174q164 0 251 -102.5t52 -325.5l-94 -598h-309l92 592q33 195 -125 194q-104 0 -167.5 -66.5t-82.5 -182.5l-86 -537h-309zM299 1198q18 156 94 239t187 83q57 0 97 -25t75 -51q29 -18 56.5 -32.5t61.5 -14.5q102 0 136 131 l145 -8q-18 -156 -93 -239t-185 -83q-59 0 -100.5 23.5t-76.5 50.5q-29 20 -56.5 34.5t-59.5 14.5q-103 0 -136 -131z" />
<glyph unicode="&#xf2;" horiz-adv-x="1206" d="M68 440q0 186 79.5 317.5t212 200t283.5 68.5q233 0 364.5 -126t131.5 -335q0 -188 -81 -319t-212 -200t-285 -69q-233 0 -363 126t-130 337zM311 1556h293l201 -419h-203zM379 430q0 -106 50 -163.5t140 -57.5q121 0 189.5 104.5t68.5 261.5q0 106 -51 163t-139 57 q-123 0 -190.5 -104.5t-67.5 -260.5z" />
<glyph unicode="&#xf3;" horiz-adv-x="1206" d="M68 440q0 186 79.5 317.5t212 200t283.5 68.5q233 0 364.5 -126t131.5 -335q0 -188 -81 -319t-212 -200t-285 -69q-233 0 -363 126t-130 337zM379 430q0 -106 50 -163.5t140 -57.5q121 0 189.5 104.5t68.5 261.5q0 106 -51 163t-139 57q-123 0 -190.5 -104.5 t-67.5 -260.5zM604 1137l271 419h301l-369 -419h-203z" />
<glyph unicode="&#xf4;" horiz-adv-x="1206" d="M68 440q0 186 79.5 317.5t212 200t283.5 68.5q233 0 364.5 -126t131.5 -335q0 -188 -81 -319t-212 -200t-285 -69q-233 0 -363 126t-130 337zM336 1137l268 419h262l187 -419h-191l-139 252l-195 -252h-192zM379 430q0 -106 50 -163.5t140 -57.5q121 0 189.5 104.5 t68.5 261.5q0 106 -51 163t-139 57q-123 0 -190.5 -104.5t-67.5 -260.5z" />
<glyph unicode="&#xf5;" horiz-adv-x="1206" d="M68 440q0 186 79.5 317.5t212 200t283.5 68.5q233 0 364.5 -126t131.5 -335q0 -188 -81 -319t-212 -200t-285 -69q-233 0 -363 126t-130 337zM301 1198q18 156 94 239t187 83q57 0 97 -25t75 -51q29 -18 56.5 -32.5t61.5 -14.5q102 0 136 131l145 -8q-18 -156 -93 -239 t-185 -83q-59 0 -100.5 23.5t-76.5 50.5q-29 20 -56.5 34.5t-59.5 14.5q-103 0 -136 -131zM379 430q0 -106 50 -163.5t140 -57.5q121 0 189.5 104.5t68.5 261.5q0 106 -51 163t-139 57q-123 0 -190.5 -104.5t-67.5 -260.5z" />
<glyph unicode="&#xf6;" horiz-adv-x="1206" d="M68 440q0 186 79.5 317.5t212 200t283.5 68.5q233 0 364.5 -126t131.5 -335q0 -188 -81 -319t-212 -200t-285 -69q-233 0 -363 126t-130 337zM379 430q0 -106 50 -163.5t140 -57.5q121 0 189.5 104.5t68.5 261.5q0 106 -51 163t-139 57q-123 0 -190.5 -104.5 t-67.5 -260.5zM381 1208l43 271h268l-41 -271h-270zM786 1208l39 271h271l-41 -271h-269z" />
<glyph unicode="&#xf7;" d="M111 481l34 213h1000l-35 -213h-999zM416 70l39 235h233l-37 -235h-235zM543 870l37 236h235l-37 -236h-235z" />
<glyph unicode="&#xf8;" horiz-adv-x="1206" d="M68 440q0 188 79.5 319.5t212 199t283.5 67.5q125 0 223 -37l95 125l131 -92l-88 -119q135 -123 135 -338q0 -188 -81 -319t-212 -200t-285 -69q-121 0 -217 37l-94 -127l-133 93l88 118q-137 125 -137 342zM346 426q0 -63 19 -113l362 488q-43 14 -98 14 q-129 0 -206 -106.5t-77 -282.5zM483 203q41 -13 90 -13q131 0 207 108t76 282q0 59 -14 104z" />
<glyph unicode="&#xf9;" horiz-adv-x="1208" d="M100 408l95 598h309l-94 -594q-31 -193 122 -193q96 0 160 66.5t82 183.5l84 537h309l-159 -1006h-301l22 150q-113 -173 -332 -173q-160 0 -247 103.5t-50 327.5zM305 1558h293l201 -419h-203z" />
<glyph unicode="&#xfa;" horiz-adv-x="1208" d="M100 408l95 598h309l-94 -594q-31 -193 122 -193q96 0 160 66.5t82 183.5l84 537h309l-159 -1006h-301l22 150q-113 -173 -332 -173q-160 0 -247 103.5t-50 327.5zM598 1139l271 419h301l-369 -419h-203z" />
<glyph unicode="&#xfb;" horiz-adv-x="1208" d="M100 408l95 598h309l-94 -594q-31 -193 122 -193q96 0 160 66.5t82 183.5l84 537h309l-159 -1006h-301l22 150q-113 -173 -332 -173q-160 0 -247 103.5t-50 327.5zM330 1139l268 419h262l187 -419h-191l-139 252l-195 -252h-192z" />
<glyph unicode="&#xfc;" horiz-adv-x="1208" d="M100 408l95 598h309l-94 -594q-31 -193 122 -193q96 0 160 66.5t82 183.5l84 537h309l-159 -1006h-301l22 150q-113 -173 -332 -173q-160 0 -247 103.5t-50 327.5zM375 1210l43 271h268l-41 -271h-270zM780 1210l39 271h271l-41 -271h-269z" />
<glyph unicode="&#xfd;" horiz-adv-x="1091" d="M55 1006h312l149 -639l363 639h319l-825 -1375h-316l262 424zM516 1137l271 419h301l-369 -419h-203z" />
<glyph unicode="&#xfe;" horiz-adv-x="1249" d="M-18 -369l286 1813h310l-89 -572q55 74 138.5 114t181.5 40q170 0 272.5 -116.5t102.5 -317.5q0 -174 -61.5 -313.5t-175 -220.5t-269.5 -81q-102 0 -182 44.5t-121 125.5l-84 -516h-309zM426 430q0 -106 50 -163.5t138 -57.5q123 0 190.5 104.5t67.5 261.5 q0 106 -50 163t-138 57q-123 0 -190.5 -104.5t-67.5 -260.5z" />
<glyph unicode="&#xff;" horiz-adv-x="1091" d="M55 1006h312l149 -639l363 639h319l-825 -1375h-316l262 424zM293 1208l43 271h268l-41 -271h-270zM698 1208l39 271h271l-41 -271h-269z" />
<glyph unicode="&#x152;" horiz-adv-x="2174" d="M139 625q-2 244 92.5 429t281.5 287.5t470 102.5h1233l-39 -248h-684l-53 -338h639l-39 -250h-637l-60 -360h685l-39 -248h-1112q-354 0 -546 166t-192 459zM469 629q0 -178 102.5 -273.5t305.5 -95.5h165l146 924h-209q-176 0 -288.5 -71t-167 -195.5t-54.5 -288.5z" />
<glyph unicode="&#x153;" horiz-adv-x="1878" d="M68 440q0 188 79.5 319.5t212 199t283.5 67.5q123 0 215 -43t150 -123q72 76 169 121t214 45q166 0 267 -71.5t140 -192.5t17 -268l-9 -58h-684q-2 -109 63.5 -167t186.5 -58q184 0 309 96l70 -205q-76 -57 -180.5 -91t-222.5 -34q-131 0 -231.5 44.5t-164.5 123.5 q-76 -80 -176 -124t-215 -44q-233 0 -363 127t-130 336zM379 430q0 -106 50 -162.5t140 -56.5q121 0 189.5 103.5t68.5 260.5q0 106 -51 163t-139 57q-123 0 -190.5 -104.5t-67.5 -260.5zM1145 596h434q8 96 -36.5 160.5t-153.5 64.5q-106 0 -166 -66.5t-78 -158.5z" />
<glyph unicode="&#x178;" horiz-adv-x="1292" d="M80 1444h348l270 -512l432 512h377l-678 -791l-104 -653h-317l102 651zM457 1599l41 271h270l-43 -271h-268zM858 1599l45 271h268l-43 -271h-270z" />
<glyph unicode="&#x2c6;" horiz-adv-x="1024" d="M244 1137l268 419h262l187 -419h-191l-139 252l-195 -252h-192z" />
<glyph unicode="&#x2dc;" horiz-adv-x="1024" d="M209 1198q18 156 94 239t187 83q57 0 97 -25t75 -51q29 -18 56.5 -32.5t61.5 -14.5q102 0 136 131l145 -8q-18 -156 -93 -239t-185 -83q-59 0 -100.5 23.5t-76.5 50.5q-29 20 -56.5 34.5t-59.5 14.5q-103 0 -136 -131z" />
<glyph unicode="&#x2000;" horiz-adv-x="1030" />
<glyph unicode="&#x2001;" horiz-adv-x="2060" />
<glyph unicode="&#x2002;" horiz-adv-x="1030" />
<glyph unicode="&#x2003;" horiz-adv-x="2060" />
<glyph unicode="&#x2004;" horiz-adv-x="686" />
<glyph unicode="&#x2005;" horiz-adv-x="515" />
<glyph unicode="&#x2006;" horiz-adv-x="343" />
<glyph unicode="&#x2007;" horiz-adv-x="343" />
<glyph unicode="&#x2008;" horiz-adv-x="257" />
<glyph unicode="&#x2009;" horiz-adv-x="412" />
<glyph unicode="&#x200a;" horiz-adv-x="114" />
<glyph unicode="&#x2010;" horiz-adv-x="901" d="M123 428l39 242h631l-37 -242h-633z" />
<glyph unicode="&#x2011;" horiz-adv-x="901" d="M123 428l39 242h631l-37 -242h-633z" />
<glyph unicode="&#x2012;" horiz-adv-x="901" d="M123 428l39 242h631l-37 -242h-633z" />
<glyph unicode="&#x2013;" horiz-adv-x="1024" d="M-8 459l31 180h1024l-29 -180h-1026z" />
<glyph unicode="&#x2014;" horiz-adv-x="2048" d="M-8 459l31 180h2048l-29 -180h-2050z" />
<glyph unicode="&#x2018;" horiz-adv-x="532" d="M154 838l36 237q18 117 66.5 205t167.5 180l104 -112q-109 -94 -141 -181h150l-52 -329h-331z" />
<glyph unicode="&#x2019;" horiz-adv-x="532" d="M197 1116l53 328h332l-37 -236q-18 -117 -66.5 -205t-167.5 -180l-106 113q111 94 143 180h-151z" />
<glyph unicode="&#x201a;" horiz-adv-x="532" d="M20 0l52 328h331l-38 -238q-18 -115 -65.5 -203t-166.5 -182l-104 115q57 49 90 91t51 89h-150z" />
<glyph unicode="&#x201c;" horiz-adv-x="966" d="M154 838l36 237q18 117 66.5 205t167.5 180l104 -112q-109 -94 -141 -181h150l-52 -329h-331zM588 838l36 237q18 117 66.5 205t167.5 180l104 -112q-109 -94 -141 -181h150l-52 -329h-331z" />
<glyph unicode="&#x201d;" horiz-adv-x="966" d="M197 1116l53 328h332l-37 -236q-18 -117 -66.5 -205t-167.5 -180l-106 113q111 94 143 180h-151zM631 1116l53 328h332l-37 -236q-18 -117 -66.5 -205t-167.5 -180l-106 113q111 94 143 180h-151z" />
<glyph unicode="&#x201e;" horiz-adv-x="966" d="M20 0l52 328h331l-38 -238q-18 -115 -65.5 -203t-166.5 -182l-104 115q57 49 90 91t51 89h-150zM454 0l52 328h331l-38 -238q-18 -115 -65.5 -203t-166.5 -182l-104 115q57 49 90 91t51 89h-150z" />
<glyph unicode="&#x2022;" horiz-adv-x="1073" d="M172 543q0 94 48 177t132 135t191 52q98 0 183 -47t136 -130t51 -187q0 -100 -50 -182t-134 -131.5t-186 -49.5q-100 0 -184.5 48t-135.5 130t-51 185z" />
<glyph unicode="&#x2026;" horiz-adv-x="1597" d="M20 0l52 328h331l-51 -328h-332zM552 0l52 328h331l-51 -328h-332zM1085 0l52 328h331l-51 -328h-332z" />
<glyph unicode="&#x202f;" horiz-adv-x="412" />
<glyph unicode="&#x2039;" horiz-adv-x="620" d="M111 471l22 150l268 331l199 -98l-223 -322l94 -305l-211 -88z" />
<glyph unicode="&#x203a;" horiz-adv-x="620" d="M33 240l223 319l-92 305l211 88l149 -329l-24 -152l-269 -332z" />
<glyph unicode="&#x205f;" horiz-adv-x="515" />
<glyph unicode="&#x20ac;" d="M37 463l31 196h157q2 66 11 127h-148l31 197h155q70 233 229 358t374 125q113 0 220 -45t181 -127l-121 -202q-63 55 -131 80.5t-133 25.5q-104 0 -175 -58.5t-112 -156.5h305l-32 -197h-328q-4 -31 -6 -63.5t-2 -63.5h317l-31 -196h-262q25 -111 89.5 -164t150.5 -53 q68 0 136.5 24.5t127.5 81.5l82 -221q-80 -80 -181.5 -118t-205.5 -38q-131 0 -241.5 53.5t-185.5 162t-99 272.5h-203z" />
<glyph unicode="&#x2122;" horiz-adv-x="1988" d="M145 1219l35 225h754l-35 -225h-240l-100 -637h-278l102 637h-238zM918 582l135 862h211l186 -447l330 447h221l-137 -862h-236l70 448l-225 -301h-117l-131 311l-72 -458h-235z" />
<glyph unicode="&#x25fc;" horiz-adv-x="1003" d="M0 0v1004h1004v-1004h-1004z" />
</font>
</defs>
</svg>
